<svg xmlns="http://www.w3.org/2000/svg" width="900" height="560">
  <defs>
    <linearGradient id="g2" x1="0" y1="0" x2="0" y2="1">
      <stop offset="0" stop-color="#eff6ff"/>
      <stop offset="1" stop-color="#ffffff"/>
    </linearGradient>
  </defs>
  <rect width="100%" height="100%" fill="url(#g2)"/>
  <rect x="40" y="40" width="820" height="480" rx="16" fill="#ffffff" stroke="#dbeafe"/>
  <rect x="60" y="70" width="220" height="24" rx="6" fill="#f3f4f6"/>
  <rect x="60" y="106" width="760" height="44" rx="8" fill="#f9fafb" stroke="#e5e7eb"/>
  <rect x="60" y="160" width="760" height="300" rx="10" fill="#ffffff" stroke="#e5e7eb"/>
  <rect x="70" y="172" width="300" height="12" rx="4" fill="#e5e7eb"/>
  <rect x="70" y="196" width="560" height="10" rx="4" fill="#f3f4f6"/>
  <rect x="70" y="216" width="580" height="10" rx="4" fill="#f3f4f6"/>
  <rect x="70" y="236" width="520" height="10" rx="4" fill="#f3f4f6"/>
  <rect x="70" y="276" width="640" height="10" rx="4" fill="#f3f4f6"/>
  <rect x="70" y="296" width="600" height="10" rx="4" fill="#f3f4f6"/>
  <rect x="70" y="316" width="560" height="10" rx="4" fill="#f3f4f6"/>
  <rect x="70" y="356" width="580" height="10" rx="4" fill="#f3f4f6"/>
  <rect x="70" y="376" width="620" height="10" rx="4" fill="#f3f4f6"/>
  <rect x="70" y="396" width="540" height="10" rx="4" fill="#f3f4f6"/>
  <text x="60" y="520" font-family="Inter, Arial" font-size="14" fill="#6b7280">
    Note detail & editing mockup • Ocean Professional
  </text>
</svg>
